<svg xmlns="http://www.w3.org/2000/svg" viewBox="0 0 1200 900" width="100%" height="100%">
  <defs>
    <radialGradient id="tableCover" cx="50%" cy="50%" r="60%">
      <stop offset="0%" stop-color="#ffffff"/>
      <stop offset="70%" stop-color="#f8f6f0"/>
      <stop offset="100%" stop-color="#e6e0d5"/>
    </radialGradient>
    <linearGradient id="silverPlate" x1="0" y1="0" x2="1" y2="1">
      <stop offset="0%" stop-color="#ffffff"/>
      <stop offset="40%" stop-color="#d6d1c7"/>
      <stop offset="70%" stop-color="#aba396"/>
      <stop offset="100%" stop-color="#e8e4db"/>
    </linearGradient>
    <linearGradient id="brassGoldLid" x1="0" y1="0" x2="1" y2="1">
      <stop offset="0%" stop-color="#ffea94"/>
      <stop offset="50%" stop-color="#d4a32c"/>
      <stop offset="100%" stop-color="#805b0b"/>
    </linearGradient>
    <radialGradient id="smokeGlow" cx="50%" cy="50%" r="50%">
      <stop offset="0%" stop-color="#ffffff" stop-opacity="0.8"/>
      <stop offset="50%" stop-color="#f2ede4" stop-opacity="0.4"/>
      <stop offset="100%" stop-color="#ffffff" stop-opacity="0"/>
    </radialGradient>
  </defs>

  <!-- Tablecloth Background -->
  <rect width="1200" height="900" fill="url(#tableCover)"/>

  <!-- Elaborate Fluted Silver-Brass Pedestal Thali Tray -->
  <g transform="translate(600, 480)">
    <!-- Silver Fluted Edge Platter -->
    <ellipse cx="0" cy="0" rx="380" ry="240" fill="url(#silverPlate)" stroke="#c2bbb0" stroke-width="6"/>

    <!-- Dry Ice Swirling Aromatherapeutic Mist -->
    <ellipse cx="-60" cy="20" rx="260" ry="120" fill="url(#smokeGlow)"/>
    <ellipse cx="80" cy="-30" rx="220" ry="100" fill="url(#smokeGlow)"/>

    <!-- Center Brass Domed Casserole Vessel -->
    <g transform="translate(140, -40)">
      <ellipse cx="0" cy="50" rx="80" ry="40" fill="#9e7418"/>
      <path d="M -70 30 Q 0 -60 70 30 Z" fill="url(#brassGoldLid)" stroke="#805b0b" stroke-width="2"/>
      <circle cx="0" cy="-60" r="12" fill="url(#brassGoldLid)"/>
      <ellipse cx="0" cy="30" rx="70" ry="25" fill="#f7cf6d"/>
    </g>

    <!-- The Signature Miniature Brass Balance Scale (Tarazu) with Sweets -->
    <g transform="translate(-80, 0)">
      <!-- Central Pillar & Base -->
      <polygon points="-8,40 8,40 14,50 -14,50" fill="url(#brassGoldLid)"/>
      <line x1="0" y1="40" x2="0" y2="-60" stroke="#b08117" stroke-width="5"/>
      <circle cx="0" cy="-60" r="8" fill="url(#brassGoldLid)"/>
      <!-- Balance Horizontal Crossbeam -->
      <line x1="-80" y1="-60" x2="80" y2="-60" stroke="#b08117" stroke-width="4"/>
      <!-- Left Pan Hanging Strings & Sweet -->
      <line x1="-80" y1="-60" x2="-100" y2="-10" stroke="#d4a32c" stroke-width="1.5"/>
      <line x1="-80" y1="-60" x2="-60" y2="-10" stroke="#d4a32c" stroke-width="1.5"/>
      <ellipse cx="-80" cy="-10" rx="28" ry="10" fill="url(#brassGoldLid)"/>
      <!-- Mohanthal / Peda sweet piece on left pan -->
      <polygon points="-90,-20 -70,-20 -65,-10 -95,-10" fill="#c77b28"/>

      <!-- Right Pan Hanging Strings & Sweet -->
      <line x1="80" y1="-60" x2="60" y2="10" stroke="#d4a32c" stroke-width="1.5"/>
      <line x1="80" y1="-60" x2="100" y2="10" stroke="#d4a32c" stroke-width="1.5"/>
      <ellipse cx="80" cy="10" rx="28" ry="10" fill="url(#brassGoldLid)"/>
      <!-- Sweet piece on right pan -->
      <polygon points="70,0 90,0 95,10 65,10" fill="#c77b28"/>
    </g>

    <!-- Shrikhand Tartlets with Blueberries & Silver Pearls (Left) -->
    <g transform="translate(-240, -40)">
      <ellipse cx="0" cy="0" rx="42" ry="28" fill="#e8c784" stroke="#c49b49" stroke-width="2"/>
      <ellipse cx="0" cy="-6" rx="34" ry="20" fill="#fffef0"/>
      <!-- Blueberries & edible silver leaf -->
      <circle cx="-10" cy="-8" r="6" fill="#1b2447"/>
      <circle cx="8" cy="-5" r="6" fill="#1b2447"/>
      <circle cx="0" cy="-12" r="5" fill="#1b2447"/>
      <polygon points="-4,-4 4,-4 2,-1 -2,-1" fill="#e6e6e6"/>
    </g>

    <!-- Warm Halwa Katori with 24K Edible Gold Vark (Top Center) -->
    <g transform="translate(-80, -140)">
      <ellipse cx="0" cy="0" rx="55" ry="34" fill="url(#brassGoldLid)" stroke="#805b0b" stroke-width="3"/>
      <ellipse cx="0" cy="-6" rx="46" ry="26" fill="#c9551c"/>
      <!-- 24K Pure Gold Leaf Vark gleaming in center -->
      <polygon points="-15,-10 12,-18 20,-2 -6,2" fill="#ffd700" stroke="#fff" stroke-width="1"/>
      <polygon points="-8,-4 5,-12 10,-3 -2,-1" fill="#fff6bd"/>
      <!-- Sliced slivered almonds -->
      <ellipse cx="-20" cy="-6" rx="7" ry="2" fill="#fffdec"/>
      <ellipse cx="14" cy="-4" rx="6" ry="2" fill="#fffdec"/>
    </g>

    <!-- Saffron-Pistachio Basundi with Sesame Crisp (Right Upper) -->
    <g transform="translate(140, -140)">
      <ellipse cx="0" cy="0" rx="50" ry="30" fill="#fdfbf7" stroke="#d5cfc4" stroke-width="3"/>
      <ellipse cx="0" cy="-4" rx="42" ry="22" fill="#faea96"/>
      <!-- Sesame Chikki Triangle Crisp standing in Basundi -->
      <polygon points="-10,-10 15,-40 25,-4" fill="#a16223"/>
      <!-- Pistachio slivers -->
      <circle cx="-15" cy="-4" r="2.5" fill="#3f7529"/>
      <circle cx="-5" cy="-8" r="2" fill="#3f7529"/>
      <circle cx="8" cy="-6" r="2.5" fill="#3f7529"/>
    </g>

    <!-- Chilled Kheer Bowls with Silver Vark (Right Lower) -->
    <g transform="translate(320, 20)">
      <ellipse cx="0" cy="0" rx="52" ry="32" fill="#fdfbf7" stroke="#d5cfc4" stroke-width="3"/>
      <ellipse cx="0" cy="-4" rx="44" ry="24" fill="#fff8e3"/>
      <polygon points="5,-5 20,-35 28,-2" fill="#a16223"/>
      <circle cx="-12" cy="-4" r="2.5" fill="#8f2b1d"/>
    </g>

    <!-- Saffron Kulfi & Sorbet Spoons (Bottom) -->
    <g transform="translate(-140, 110)">
      <ellipse cx="0" cy="0" rx="34" ry="16" fill="#4d3222"/>
      <ellipse cx="0" cy="-2" rx="26" ry="10" fill="#1f1814"/>
    </g>
    <g transform="translate(-40, 125)">
      <ellipse cx="0" cy="0" rx="34" ry="16" fill="#fdfbf7" stroke="#baa89b" stroke-width="2"/>
      <ellipse cx="0" cy="-2" rx="26" ry="10" fill="#fff5d9"/>
    </g>
  </g>

  <!-- Title Badge -->
  <g transform="translate(40, 840)">
    <rect x="-10" y="-30" width="390" height="42" fill="#09080b" opacity="0.85" rx="4"/>
    <text x="10" y="-3" font-family="'Plus Jakarta Sans', sans-serif" font-size="16" font-weight="600" fill="#ffd269" letter-spacing="2">MISHTAAN THAAL</text>
    <text x="210" y="-3" font-family="'Plus Jakarta Sans', sans-serif" font-size="13" font-weight="400" fill="#ffffff" opacity="0.8" letter-spacing="1">DESSERT SYMPHONY</text>
  </g>
</svg>